<svg xmlns="http://www.w3.org/2000/svg" viewBox="0 0 500 500"><defs><style>.cls-1{fill:none;stroke:#000;stroke-miterlimit:10;}</style></defs><g id="GLOW-2" data-name="GLOW"><path class="cls-1" d="M422.62,245.69a26.92,26.92,0,0,0-7.19-52.87,26.6,26.6,0,0,0-4.22.34,28.15,28.15,0,0,0-47.33-24.63,17.71,17.71,0,0,0-9.17-7.35,30.41,30.41,0,0,0-38.56-23.57,31.6,31.6,0,0,0-50-5.13,25,25,0,0,0-4.73-9.5c1.89-13.2,8.53-42.73,31-58.41l.7-.49.1-.06h0c8.19-5.92,13.1-13.47,13.1-21.69,0-19-26.14-34.38-58.38-34.38s-58.39,15.39-58.39,34.38c0,8.38,5.1,16.06,13.57,22h-.23c19.33,13,27.23,36,30.42,50.93a24.57,24.57,0,0,0-2.59,1.14,24.86,24.86,0,0,0-13.5,23.79,14.82,14.82,0,0,0-3.95,24.53l-4.5,2.6c0-.42,0-.84,0-1.25a28.16,28.16,0,1,0-41.12,25l-14.15,8.18a30,30,0,1,0-59.72-4.7c0,.83,0,1.65.11,2.47a17.53,17.53,0,0,0-5.39,3.15A28.15,28.15,0,0,0,52,228.91a17.36,17.36,0,0,0-3.76,31.18L41.47,264V373.67l207,119.24L454.06,375V264Z"/></g></svg>