<svg xmlns="http://www.w3.org/2000/svg" viewBox="0 0 500 500"><defs><style>.cls-1{fill:none;stroke:#000;stroke-miterlimit:10;}</style></defs><g id="GLOW-2" data-name="GLOW"><path class="cls-1" d="M140.66,206.68l-15.2,8.78L117,208.32l-3.78.46a20.88,20.88,0,0,0-37.64,2.11A20.91,20.91,0,1,0,67,249.23L41.47,264V373.67l207,119.24L454.06,375V264l-22.41-13a18.45,18.45,0,0,0,4.79.64A18.81,18.81,0,1,0,423,245.91l-63.61-37a7.8,7.8,0,0,0,.29-2.11c0-2.69-1.26-4.87-2.81-4.87-1.36,0-2.49,1.68-2.75,3.91l-1.74-1c0-.43.07-.87.07-1.33,0-3-1-5.53-2.22-5.53-1.06,0-1.94,1.86-2.16,4.35l-3.86-2.24c-.1-2.21-1.08-3.94-2.3-3.94-.71,0-1.34.62-1.77,1.57l-10.88-6.33V177.81l-37.15-21.56a20.87,20.87,0,1,0-29.76-18.87c0,.56,0,1.1.08,1.64L251,132.36,241.29,138,235,134.23c-10.77-1.07-20.12,5.33-23.63,8.12a20.85,20.85,0,0,0-28.92,29.93l-9.92,5.78v2.35l-6.44,3.65V192L147,203Z"/></g></svg>