<svg id="CLIP_PATH" data-name="CLIP PATH" xmlns="http://www.w3.org/2000/svg" viewBox="0 0 500 500"><defs><style>.cls-1{fill:none;stroke:#000;stroke-miterlimit:10;}</style></defs><path class="cls-1" d="M404.57,236.09l-3.25-4.92L396,228.1v-4.59l-5.43-3h0a5.34,5.34,0,0,0-4.08-3v-.07a6.09,6.09,0,0,0-6.09-6.09,6,6,0,0,0-2.33.47,5.33,5.33,0,0,0-4.66-2.78,5.88,5.88,0,0,0-1,.09v-5.3l-6.17-5.7v-2.34L364.36,192l-3.4,1.28-1.15-1v-2.42L358,186.19l-3.7,1.28-1.7-.85v-2.13l-2.43-3.4-3,1.06-6.89-5.32L337,175.38l-5.28,6.05v.8l-1.19.43v-2.17l.6-.6-.64-.34v-4l.68-.38-.6-.51v-5.24l.43-.89-2.85-.55-17.24-7-11,11.66-4.47-2.51v-.77l-1.92-1v-1.19l-.72-.47,4.68-2.47V139.85l-30.3-19.3-7.85,3.66h0a7.56,7.56,0,0,0-13.75,4.35,7.45,7.45,0,0,0,.32,2.17l-.32.15-3.47,1.66-17.56-10.4-10.72-4.21-6.57,2v2.62l-1.79.38v4.4l-1.53.51v5.49l-1.53.13v10l-2.94.83v4.4l-1.4.39v4.46l-1.6.51v3.58l-1.4.32v3.13l-1.17.89a3,3,0,1,0-4.63,3.73l-1.55,1.69a6.23,6.23,0,0,0-3.31,2.3l-2.88,1.6v-2.68l-1-.83V164L179,162.81v-1l-6.19-8.49v-1.85l-1-1v-2.55L160,133.06l-2.55,1.85v1.41l-1.66,1.28V139L154,140.28v1.4l-5.55,2.11-.13,3.38-1,.51.06,2.68-.7.32-1.15,11.75-3.32,1.66v1l-1.15.57-2.3,19.79-16.85-12.64-3.51-1.09-9.64,4.47v7.6h-.63v5.42h-.71v9.9l-6.89-5.36L98.65,201h0a7.54,7.54,0,0,0-3.88,6.49,7.56,7.56,0,0,0-10.45,10.86c-.24,0-.48,0-.73,0A7.56,7.56,0,0,0,76,225.77l-.53.31a6.22,6.22,0,0,0-4.63,2.67l-1.28.73a7.48,7.48,0,0,0,1.68-4.74,7.57,7.57,0,1,0-7.57,7.57,7.49,7.49,0,0,0,1.17-.1l-7.46,4.31a7.57,7.57,0,1,0-7.79,4.5l-8.15,4.7v128l207,119.24L454.06,375V264.87Z"/></svg>