<svg xmlns="http://www.w3.org/2000/svg" viewBox="0 0 500 500"><defs><style>.cls-1{fill:none;stroke:#000;stroke-miterlimit:10;}</style></defs><g id="GLOW-2" data-name="GLOW"><path class="cls-1" d="M431.69,251a29.73,29.73,0,1,0-45.32-35.37,25.45,25.45,0,0,0-25-5.55l-2.22-1.29a18.25,18.25,0,0,0,3.45-35.69,29.73,29.73,0,0,0-58.86,3.46l-7.42-4.32A24.73,24.73,0,0,0,279,139.33a29.73,29.73,0,0,0-58.84,4.23,24,24,0,0,0-33.37,15.1A27.69,27.69,0,0,0,152,200.11l-38.48,22.23A24,24,0,1,0,77,243.46L41.47,264V373.67l207,119.24L454.06,375V264Z"/></g></svg>