<svg id="CLIP_PATH" data-name="CLIP PATH" xmlns="http://www.w3.org/2000/svg" viewBox="0 0 500 500"><defs><style>.cls-1{fill:none;stroke:#000;stroke-miterlimit:10;}</style></defs><path class="cls-1" d="M435.47,237.3v-1.79l-19-10.85v-9.9a20.24,20.24,0,1,0-15.15-35.32,16.87,16.87,0,0,0-25.22,14.68v.12l-7.27,3a13.44,13.44,0,0,0-2.25-6.9,17.8,17.8,0,1,0-6.33-34.76,16.06,16.06,0,0,0-27.69,15.84,15.37,15.37,0,0,0-17.67-4.66l-.3,0V162a17.88,17.88,0,1,0-3.19,0v5l-15.06.9-3.76-1.79a13.59,13.59,0,1,0-23.05-11l-1.91-.91-2.43,1.28-17.4-9.58-67.23,38.89a13.35,13.35,0,0,0,.2-2.21,12.84,12.84,0,1,0-22.68,8.22l-1,0a12.82,12.82,0,0,0-19.29-6c0-.13,0-.27,0-.41a13.34,13.34,0,0,0-26.68,0,14,14,0,0,0,.15,2,14.79,14.79,0,0,0-8.14,5.52,18.07,18.07,0,1,0-19.59,20.49v9.26L71,229.26l.09,1.7L41.47,248V373.67l207,119.24L454.06,375V248ZM102.79,210l-15.7,9.52v-7.1a18,18,0,0,0,13.48-8.46,14.6,14.6,0,0,0,2.68,5.73Zm310.08,12.65-19.27-11V211a16.69,16.69,0,0,0,7-1.82,20.1,20.1,0,0,0,12.24,5.6Z"/></svg>