<svg xmlns="http://www.w3.org/2000/svg" xmlns:xlink="http://www.w3.org/1999/xlink" viewBox="0 0 500 500"><defs><style>.cls-1{fill:none;stroke:#000;stroke-miterlimit:10;}</style></defs><g id="IMAGE"><image id="ESTA_WATER.psd" width="3000" height="3000" transform="translate(-14.96 -8.41) scale(0.18)" xlink:href="X:%5COneDrive%5CENTROPIC%5C06%20WEBSITE%5CICONS%5CXX_FINAL%5CICON_HOBBEMA.png"/></g><g id="GLOW-2" data-name="GLOW"><path class="cls-1" d="M461.83,217.34a24.13,24.13,0,1,0-26.79,24v11.61L344,200a24.12,24.12,0,1,0-22.81-13.27l-4.09-2.37A24.12,24.12,0,0,0,276,160.4l-3.42-2a16.59,16.59,0,1,0-20-16.23,16.76,16.76,0,0,0,.78,5l-4.84-2.82-84.53,48.84v-6.52a16.58,16.58,0,1,0-3.71.07v8.58l-15.94,9.21a24.13,24.13,0,0,0-35.45,20.48L41.47,264V373.67l207,119.24L454.06,375V264l-13.83-8V241.33A24.13,24.13,0,0,0,461.83,217.34Z"/></g></svg>