<?xml version="1.0" encoding="UTF-8"?>
<svg id="CLIP_PATH" data-name="CLIP PATH" xmlns="http://www.w3.org/2000/svg" viewBox="0 0 500 500">
  <defs>
    <style>
      .cls-1 {
        fill: none;
        stroke: #000;
        stroke-miterlimit: 10;
      }
    </style>
  </defs>
  <path class="cls-1" d="m448.62,260.15l-1.28-3.06-1.52-2.08c.35.04.71.07,1.07.07,5.11,0,9.25-4.14,9.25-9.25,0-3.97-2.51-7.35-6.03-8.66.13-.8.21-1.61.21-2.45,0-8.44-6.84-15.28-15.28-15.28s-15.28,6.84-15.28,15.28c0,3.09.92,5.96,2.5,8.36l-1.34-.42-4.72-4.08-5.11-2.17-5.87-3.96-3.06-.38-2.94-2.94-.89,3.57-27.57-15.94v-21.6l-43.85-25.44-18.7,10.82-1.47-.77-.26-3.77-.96-.57-.77.7.77,2.74-1.85-.96-.32-1.72.32-1.53-1.02-.57-1.02.64-.57,1.66-.93-.57v-6.32l-32.58-18.7-5.17,3.19-10.98-6.41c.06-.48.1-.97.1-1.47,0-6.36-5.15-11.51-11.51-11.51s-11.51,5.15-11.51,11.51c0,.45.03.88.08,1.32-1.77-.94-3.79-1.47-5.94-1.47-7.03,0-12.73,5.7-12.73,12.73,0,2.18.55,4.22,1.51,6.02l-3.73,2.38c-1.5-6.33-7.18-11.04-13.96-11.04-7.93,0-14.36,6.43-14.36,14.36,0,1.85.36,3.61,1,5.23l-13.01-7.86-18.99,10.85v5.49l-19.24-11.3-33.96,19.47v20.11l-2.43,1.72v21.45l-4.02,2.49v-3.96l-.89-.77-.96,1.09s.06,2.43.06,2.74-.89,0-.89,0l-.7,2.11-.51,1.28-.51-1.91-.32-1.47-1.34,1.79-.26,2.62-3.94,2.3c.03-.4.06-.8.06-1.21,0-8.37-6.78-15.15-15.15-15.15s-15.15,6.78-15.15,15.15c0,6.09,3.6,11.32,8.78,13.73l-4.48,2.61-4.3-.38-3.68-2.04-1.21.83v2.49l-1.83,1.4v112.37l207,119.25,205.59-117.96v-110.12l-4.38-2.9-1.06-1.79Z"/>
  <path class="cls-1" d="m320.94,145.97c6.03,0,11.44-2.58,15.24-6.67,4.44,3.78,10.19,6.06,16.48,6.06,10.54,0,19.58-6.4,23.45-15.52,13.88-4.93,23.82-18.17,23.82-33.74,0-19.77-16.03-35.8-35.8-35.8s-35.8,16.03-35.8,35.8c0,3.55.52,6.98,1.49,10.22-2.69-1.27-5.69-2-8.87-2-11.5,0-20.83,9.33-20.83,20.83s9.33,20.83,20.83,20.83Z"/>
</svg>