<?xml version="1.0" encoding="UTF-8"?>
<svg id="CLIP_PATH" data-name="CLIP PATH" xmlns="http://www.w3.org/2000/svg" viewBox="0 0 500 500">
  <defs>
    <style>
      .cls-1 {
        fill: none;
        stroke: #000;
        stroke-miterlimit: 10;
      }
    </style>
  </defs>
  <path class="cls-1" d="m454.06,264.84v110.12l-205.59,117.96-207-119.25v-111.99l14.36-8.11v-1.6s-4.53-1.21-4.4-3.64l.51-1.79-1.47-.83s-1.98-.89-.38-3.19l2.11-3.23s-1.74-.64-.26-2.34l1.45-1.49s-1.11-.68-.38-2.04c0,0-4.13-2.34,0-6.43l.81-.89s-2-1.7.72-4l.94-.72s-.85-1.15.77-2.51l.85-.81s-.81-.77.64-2.51l2.89-3.66,1.11,1.32s.26-1.45,2.98-3.49c0,0-2.09-2.77.85-5.15l1.32-.98s-.94-1.79,1.06-3.36l1.02-.6s-.72-1.11.94-2.94l3.96-4.94,4.83,5.86s.96.77.29,1.98c0,0,2.97,1.56,2.01,4.18,0,0,4.09,1.85,2.36,5.78l1.69-1.47s-.38-.73.64-2.17l2.65-3.8,2.27,3.35.67-.13s-.99-.48.03-2.17l2.36-3.67,2.59,4.24s.38.73-.03,1.37l.77.48,2.11-3.67,2.23,4.82s.48.7-.1,1.31l1.28,1.53s.67.89-.19,1.76l2.01,2.68s-.83-1.63.13-2.55l1.09-1.02s-.89-.54-.03-2.04l2.23-3.99,2.27,4.18s.8,1.18,0,1.85c0,0,2.23,1.4.96,3.16l1.31,1.47s1.37,1.47-.06,2.68l1.79,3.06s.7,1.76.03,2.49l57.54-33s-.45-1.98.61-2.87c0,0-.29-1.31.41-1.5,0,0,.96-.26.89.96,0,0,1.18.8.99,1.91l8.2-5.04v-22.56s-5.74.77-9.7-3.89c0,0-1.98-2.17.26-5.11l1.91-2.17s-1.68-2.11,1.04-4.34l1-.85s-.87-1.98,1.91-3.45c0,0-.53-1.02.79-2.55l3.85-4.34,3.87,4.68s.98.85.45,1.91l1.47,1.26s1.13.87.55,2.45c0,0,2.34.83,2.38,2.91l1.51-2.28s-.26-.6.66-1.89l1.83-2.64s.53-1.04,1.36-.91c0,0-.55-.87.49-1.98l4.06-4.91,4.01,4.78s1.02.8.32,1.72c0,0,2.52,1.18,1.85,3.61,0,0,3.7,1.63,1.98,5.04l2.2,2.43s3.48,3.86-3.86,7.56c0,0,1.91,2.36-1.91,4.63l-.64,1.24.8,1.88,12.93-9.45v-15.17s-7.16.36-9.76-4.55c0,0-1.96-3.35,2.41-6.41,0,0-1.91-2.74,1.79-5.11,0,0-.54-2.46,2.11-3.51,0,0-.8-.73.96-2.68l3.48-3.93,4.02,4.87s.98,1.19.26,1.96c0,0,2.68.85,1.96,3.36,0,0,3.74,1.66,2,5.19l2.64,3.19.77-.77s-.68-.04-.13-1.45l1.57-3.57,2.04,3.83s.3.89-.34,1.19l.94,1.45s.55.94-.13,1.4l.94,1.53s1.11,1.4-.04,2.38l1.36,3.36,1.62-1.19v-12.51s-4.51.64-8.38-3.7c0,0-2.26-2.3.55-5.06l1.4-1.32s-2.04-2.89,1.74-4.89c0,0-1.15-2.38,1.7-3.53,0,0-.81-.77.51-2.26l3.32-4.17,3.91,4.72s.66.81.18,1.57c0,0,2.78,1.5,1.56,3.54,0,0,3.57,1.72,1.88,4.82l1.72,2.01s.19-2.62,2.71-3.35c0,0-1.1-2.09,1.82-3.22,0,0-.73-1.04.99-2.9l3.51-3.87,4.3,4.81s.84.72.23,1.78c0,0,2.62,1.09,1.88,3.67,0,0,3.71,1.83,2.01,5.15l1.74,1.74s3.11,3.19-.09,5.96-6.34,3.4-9.19,3.49v12.89l8.89,6.34s-1.27-1.39-.31-2.41l1.44-1.53s-1.21-.67-.29-1.69l1.02-1.15s-.73-.61-.16-1.69l1.76-3.8,1.99,4.11s.38.81-.26,1.19l.91,1.32s.78,1.04-.06,1.56l1.24,1.77s.8,1.28-.37,2.01l1.42,2.92s.67,1.58-.77,2.66l1.42,1.13,1.88-2.7s-1.87-.89-.69-2.3l1.55-1.8s-1.12-1.04.34-2.57l.77-.77s-.78-.41.08-1.93l2.19-4.13.89,1.44.13-2.04,2.36-4.18s2.3,4.76,2.43,4.5,2.78-4.31,2.78-4.31l1.82,2.81,3.32-4.44,2.9,4.02s.84,1.05.2,1.84c0,0,2.36,1.38,1.57,3.21l2.15-2.51,3.34,4.23s1.11,1.13.21,2l1.15,1.11s1.43,1.23.4,2.17l1.79,1.61s1.5,1.44.03,3.26l.93,1.02,1.79-2.23s-1.21-2.07.45-3.67l1.37-1.21s-.67-1.28.8-2.62l.83-.67s-.77-.8.51-2.33l3.16-3.96,3.54,4.53s.83,1.15.23,1.83c0,0,2.43,1.49,1.6,3.23,0,0,3.32,1.43,1.74,4.81l1.53,1.83s2.77,2.98-.85,5.66c0,0-3.28,2.47-7.19,2.47v7.78l4.68,2.84,1.07-1,.81.02.66.57.4.72,1.21,1.87,2.21,1.32,2.02-3.98,1.98,4.09s.62,1.23-.06,2.11l6.17,3.66,1.45-1.21s-.99-.59-.1-2.2l2.2-3.86,1.04,1.62-.21-2,2.57-4.51,2.49,4.6,2.64-4.47,2.68,4.11s.77.83.04,1.55l.85,1.17s.85,1.15.21,1.91l1.32,1.28,1.4-1.43s-1-1.02.36-2.21l1.15-.96s-.85-.51.45-2.21l2.79-3.72,3.09,4.32s1.04,1.11.23,1.85c0,0,2.32,1.55,1.45,3.17,0,0,3.15,1.7,1.36,4.36l1.49,1.98s1.09.96.87,2.43l.53-.21s-.6-.94.79-2.47l3.38-4.09,3.66,4.21s.79.83.77,1.34l2.28-2.7,3.49,4.49s.96.94.13,1.85c0,0,2.26,1.09,1.43,3.28,0,0,3.19,1.49,1.87,4.66l.53,1.06,2.11-2.4s-1.79-2.85,1.66-4.66c0,0-.95-2.19,1.64-3.44,0,0-.7-.45.57-2.04l3.26-4.28,3.64,4.63s.83.96,0,1.76c0,0,2.59,1.12,1.79,3.41,0,0,3.16,1.91,1.56,4.63l2.14,2.55s2.14,3.1-2.23,5.78c0,0-3.57,1.53-5.68,1.66l-.55.02v20.6l13.19,9.45,2.68-4.21,3.06,4.72,1.15-1.21v-10.88s-3.96.38-7.31-2.27c0,0-3.83-2.43-.99-5.84l1.88-2.01s-1.71-1.89.73-4.09l.87-.66s-.6-1.4,1.7-3.45c0,0-.77-.64.68-2.28l3.34-4.09,3.74,4.66s.77.72.15,1.77c0,0,2.45,1,1.87,3.51l2.06,2.19,2.89-3.66,3.39,4.43s.8.99.38,2.01c0,0,2.11.96,1.98,3.45l2.55-3.1,3.86,4.72s.83,1.05.32,1.98c0,0,2.49,1.56,1.79,3.38,0,0,3.1,1.72,1.79,4.95,0,0,4.09,3.26,2.11,6.57s-9,4.24-9,4.24v13.15l9,4.95Z"/>
</svg>