<?xml version="1.0" encoding="UTF-8"?>
<svg id="Layer_1" xmlns="http://www.w3.org/2000/svg" version="1.1" viewBox="0 0 500 500">
  <!-- Generator: Adobe Illustrator 29.9.0, SVG Export Plug-In . SVG Version: 2.1.1 Build 14)  -->
  <defs>
    <style>
      .st0 {
        fill: none;
        stroke: #000;
        stroke-miterlimit: 10;
      }
    </style>
  </defs>
  <g id="GLOW-2">
    <path class="st0" d="M436.3,253.7c.6,0,1.1.1,1.7.1,7.5,0,13.7-6.1,13.7-13.6,0-7.5-6.1-13.7-13.6-13.7-7.5,0-13.7,6.1-13.7,13.6,0,3,.9,5.8,2.7,8.2l-19.4-11.3v-2.1c3.1,3.8,8.8,4.4,12.6,1.2,3.8-3.1,4.4-8.8,1.2-12.6-.6-.7-1.2-1.3-1.9-1.7,2.6-7.7-1.6-16-9.3-18.6-4.9-1.6-10.3-.6-14.2,2.7.3-1.1.4-2.3.4-3.5,0-8.1-6.5-14.7-14.6-14.7-4.6,0-9,2.2-11.8,5.9,3.5-8.2-.3-17.7-8.5-21.3-7.9-3.4-17.1,0-20.9,7.7l-.3-.4c3.5-6.7.8-14.9-5.8-18.3-6.1-3.1-13.5-1.3-17.4,4.3,4.4-7.8,1.7-17.6-6.1-22-6.4-3.7-14.5-2.5-19.7,2.9.4-1.3.5-2.6.5-3.9,0-8.1-6.6-14.7-14.7-14.7-3.1,0-6.1,1-8.6,2.8-.8-1.8-2.3-3.2-4.1-4,.2-1,.3-2.1.3-3.1,0-7.9-6.2-14.3-14-14.7v-32.1l-34-19.7-34.1,19.6v26.2l-32.2,18.4v79.7l-31.3,18.1-6.7-3.8-32.3,18.4v7.9l-38.9,22.5v109.7l207,119.2,205.6-117.9v-111l-17.7-10.3ZM357,203.3c4.5-.5,8.6-2.9,11.3-6.5-2.3,5.4-1.2,11.7,2.9,15.9-.3.9-.5,1.8-.6,2.8l-13.6-7.9v-4.3Z"/>
  </g>
</svg>