<svg xmlns="http://www.w3.org/2000/svg" viewBox="0 0 500 500"><defs><style>.cls-1{fill:none;stroke:#000;stroke-miterlimit:10;}</style></defs><g id="GLOW-2" data-name="GLOW"><path class="cls-1" d="M182.83,171.55l-12.34,6.9V181L163,185c-12.16,6.52-15.82,15.15-16.91,19.25L80.39,242.64c-23.42-1.9-29.34,15.82-29.82,17.42l-9.1,5.32V373.67l207,119.24L454.06,375V259.77L423.4,241.89,421,238.32l-1,1.62-4.75-2.77A16.53,16.53,0,0,0,391,216a13.61,13.61,0,0,0-18.5-3.73l-10.86-6.34.64-2.29-.64-1.92-2.81-4.08-2.17-1.92-.75-.44a16.53,16.53,0,0,0-27-16L306,165.81a13.64,13.64,0,0,0-12.29-7.73c-.28,0-.55,0-.83,0l-10.68-6.25-3.06-4.19-1.28,1.65L275,147.68l-.15-.07a13.3,13.3,0,0,0,.19-2.19,13.66,13.66,0,0,0-8.74-12.74,16.56,16.56,0,0,0-15-9.57,16.39,16.39,0,0,0-7.94,2,13.65,13.65,0,0,0-22.26,10.6,13.16,13.16,0,0,0,.1,1.55,8.85,8.85,0,0,0-5.32,8.12,9.09,9.09,0,0,0,.17,1.74,13.65,13.65,0,1,0-16,21l-2.87,1.68L186.91,171l-1.78-.63Z"/></g></svg>