<svg xmlns="http://www.w3.org/2000/svg" viewBox="0 0 500 500"><defs><style>.cls-1{fill:none;stroke:#000;stroke-miterlimit:10;}</style></defs><g id="CLIP_PATH-2" data-name="CLIP PATH"><path class="cls-1" d="M454.67,241.86c2.27-4.34-2.87-7-2.87-7,.8-3-2.43-4.66-2.43-4.66a3,3,0,0,0-.54-2.65l-5.68-6.28-6.06,6.83a1.85,1.85,0,0,0-.2,2.33c-3.67,1.53-2.55,4.72-2.55,4.72-5.2,2.71-2.68,7-2.68,7l-1.44,1.74L393,222.38V209.52a18.35,18.35,0,1,0-20.47-20,10.35,10.35,0,1,0,9.8,18.07,18.18,18.18,0,0,0,6.59,2V220l-33.85-19.56a10.64,10.64,0,0,0,8.24-10.36c0-.2,0-.38,0-.57a18.35,18.35,0,1,0-23.6-26c0-.41.06-.82.06-1.24a14.19,14.19,0,0,0-28.08-2.94v0a10.65,10.65,0,1,0-21.3,0,10.52,10.52,0,0,0,.89,4.24l-4.21-2.43a6.1,6.1,0,0,0-2.93-3.47c1.12-2.55-2.2-4.63-2.2-4.63a1.82,1.82,0,0,0-.48-2.14l-5.2-5.9-5.88,6.5-2.17-1.26a14.17,14.17,0,0,0-22.8-9.68l-10.16,5.76a19.42,19.42,0,0,0-7-8h.14A19.4,19.4,0,1,0,209,118.84a14.67,14.67,0,0,0-6.87,4.9A17.86,17.86,0,1,0,191,156.62v15l-70.59,41a17.86,17.86,0,0,0-32.86,3.22A11,11,0,1,0,70.44,229.5a6.51,6.51,0,0,0-.59,2.72,6.68,6.68,0,0,0,5.42,6.55l-5.33,3.12c0-1.3-2.59-3.32-2.59-3.32,1.63-3.73-2.58-5.87-2.58-5.87,1.14-2.55-2.3-4-2.3-4,1-1.15-1-2.87-1-2.87l-4.09-4.47-4.08,4.6c-2,1.53-1.15,2.93-1.15,2.93A3.9,3.9,0,0,0,49.77,233c-4.34,2.68-2.3,6.19-2.3,6.19a10.89,10.89,0,0,0-2.24,2.62c-4.59,7.91,8.05,9.83,8.05,9.83l-2.05,1.21v1.34l-9.76,5.62v113.9l207,119.24L454.06,375V257.64l-3.18-1.84c5.56-1.91,6.79-4.68,6.79-4.68C460.93,245.82,454.67,241.86,454.67,241.86ZM337.31,170.29a17.9,17.9,0,0,0-.22,2.66,18.31,18.31,0,0,0,5.69,13.27,10.59,10.59,0,0,0-.27,6.95l-28.44-16.43h.19a8.38,8.38,0,0,0,5.1-1.72,14.13,14.13,0,0,0,17.95-4.74Z"/></g></svg>