<svg xmlns="http://www.w3.org/2000/svg" viewBox="0 0 500 500"><defs><style>.cls-1{fill:none;stroke:#000;stroke-miterlimit:10;}</style></defs><g id="CLIP_PATH-2" data-name="CLIP PATH"><path class="cls-1" d="M436.64,253.85a17,17,0,1,0-18-26,14.09,14.09,0,0,0-27.88-.66l-59.59-34.66a5.06,5.06,0,0,0-1.27-3.63l-2.71-2.81c2.4-5-2.74-7.11-2.74-7.11a4.13,4.13,0,0,0-2.68-4.79,2.21,2.21,0,0,0-.42-2.55l-5.84-6.45-5.75,6.71a2.85,2.85,0,0,0-.5,2.55,4,4,0,0,0-2.71,3.76l-27.45-16h.22a14.47,14.47,0,1,0-14.46-14.47,14.75,14.75,0,0,0,.12,1.77A14.38,14.38,0,0,0,242.15,148v-3.38a18,18,0,1,0-14.92-5.49,11.63,11.63,0,0,0-7.92,5.95,20.55,20.55,0,1,0-30.51,23.26,12.16,12.16,0,0,0-2.46,6.75,8.12,8.12,0,0,0-4.86,7.43,5.49,5.49,0,0,0,0,.58l-13.87,8c-12.15,1.67-19.83,5.76-24.68,10.35a18.23,18.23,0,1,0-17.57,13.38c.43,0,.85,0,1.27-.06l-6.32,3.65a12,12,0,0,0-18.13-1.65,18.22,18.22,0,0,0-19.84,23.58l-10,5.79a8.46,8.46,0,0,0-1.74-3,13.66,13.66,0,1,0-14.75,7.13,8.42,8.42,0,0,0,2,4.22L41.47,264V373.67l207,119.24L454.06,375V264Z"/></g></svg>