<svg xmlns="http://www.w3.org/2000/svg" viewBox="0 0 500 500"><defs><style>.cls-1{fill:none;stroke:#000;stroke-miterlimit:10;}</style></defs><g id="CLIP_PATH-2" data-name="CLIP PATH"><path class="cls-1" d="M454.06,264V375l-205.59,118-207-119.24V265.13l7.91-4.36s-8.83-1.32-7-7.49a6.11,6.11,0,0,1,2.48-3.15s-2.12-3.43,2-5.32a2.78,2.78,0,0,1,2-3.53,2,2,0,0,1,.44-2.11l4-4.55,4.3,4.76s.81,1.05.19,1.68c0,0,2.6,1.2,2,3.34,0,0,2.47,1.13,2.11,2.49l.89-.68a1.07,1.07,0,0,1,.19-1.66s-5.8-2.49-3.17-6.85a5,5,0,0,1,1.51-1.59,2.83,2.83,0,0,1,1.39-4.56s-1.28-2.19,1.64-3.4a1.79,1.79,0,0,1,.19-2.53L67.06,223s-5-3.36.85-7.58a3.58,3.58,0,0,1,1.62-5.14,3,3,0,0,1,1.66-3.75,2.42,2.42,0,0,1,.94-2.66l3.36-3.79,2.83,3.45,2.36-2.15L84.85,206A1.63,1.63,0,0,1,85,208l.87.66,1.11-.81s-.81-1.87,1.79-3c0,0-.81-1,.7-2.45L93.28,198l.42.44s.53-.68.45-.68-1.75-3.06,2-4.87a2.51,2.51,0,0,1,1.63-3.38A2.48,2.48,0,0,1,98.4,187l3.51-4.09,4,4.66s.64.94.22,1.66c0,0,2.61,1.24,1.74,3.49,0,0,3.56,1.83,1.73,4.79l.89,1,.81-.64s-1.7-2.21,1.06-4c0,0-1.17-1.93,1.26-3.25,0,0-.47-.9.66-2.28l2.46-3.68,2.94,4.23s.75,1.07.13,1.68c0,0,2.23,1.28,1.28,3l1.42,1.3,1.85-1.36a1.27,1.27,0,0,1-.3-1.64s-1.78-2,.64-4.32l1.28-1.36s-2.17-2.64,1.49-4.49c0,0-1.24-2,1.36-3.27,0,0-.7-1.15.74-2.52l2.71-3.59,3.27,4.17a1.42,1.42,0,0,1,.11,1.79s2.45,1.08,1.57,3.12l.3.22,3.56-4.73,3.93,5.05,1.32-1.32s-.89-.64,0-2.09l2.38-4.25L151.3,179l1.47-2.85s-.13-1.55,2.25-3.23c0,0-1.89-3,1.36-4.28,0,0-1.1-2.08,1.43-3.28a2.11,2.11,0,0,1,.3-2.21c.87-1,2.72-3.68,2.72-3.68l3,3.94a1.9,1.9,0,0,1,.32,1.68l1.15-1s-1.81-2.22,1.06-4.34c0,0-4-3.64,1.58-7.47,0,0-1.94-3.13,1.74-4.89a2.75,2.75,0,0,1,1.81-3.58s-1-1.21,1.11-3.15l3.13-3.42,3.93,4.66s.81,1,.21,1.7c0,0,2.73,1.53,1.66,3.55,0,0,3.54,1.43,2.11,4.83l1.21,1.47,2.79-3,1.21,1.21,5.13-6.36,0-.76,3-4.45.87-.58a1.59,1.59,0,0,1,.3-2.19l4-4.42,3.83,4.23a2.69,2.69,0,0,1,1.81-2s-.92-.74,1-2.68l3.78-4.06,3.66,4.19,3,3.53.51-.36a1.72,1.72,0,0,1,.34-1.83l2.81-3.94.68.7,1.71-2.29,2.38,2.8,1.91-2.1s-2-3.11,1.71-5a2.64,2.64,0,0,1,1.65-3.34s-.59-1.32,1.24-3.06l2.89-3.41,3.62,4.19s1.17,1.24.55,2c0,0,2.49,1.53,1.66,3.4,0,0,1.6.89,1.83,1.91l1.17-.8a2.52,2.52,0,0,1,1.41-3.07s-.64-1,.59-2.3l2.77-3.59,3.15,4.21s.64.94.1,1.6c0,0,2.3,1.44,1.2,3.25,0,0,3.1,1.68,1.53,4.17l.64,1.13.57-.49a2.31,2.31,0,0,1,1.55-3s-.72-1.08.64-2.64l3.09-3.83,3.49,4.32s.87,1,.23,1.83c0,0,2.32,1.17,1.68,3.34,0,0,3.11,1.87,1.7,4.77,0,0,2.9,2.38,2.47,4.23l1.38-1.59,3.81,4.27,1.7-2.89,2.43,4.23,2.79-4.06,1.76,2.45,3.24-4.22,3.32,4.45a1.55,1.55,0,0,1-.13,1.79s2.3,1,1.57,2.93l2.22-2.44,3,4,.9-1,2,3.08,1-.64a1.56,1.56,0,0,1,.45-1.91l3.59-4.38,3.64,4.46s.7.73.6,1.26l3.51-4.68,3.44,4.55s.94,1.15.11,1.7c0,0,2.41,1.37,1.75,3.32,0,0,2.17,1,2.14,2.6l2.2-3.6,2.91,4.22a1.48,1.48,0,0,1,0,1.49s2,1.36,1.19,3c0,0,3.11,2,1.41,4l1.36,2.08s1.49,1.92.42,3.11l.85.87s1.28,1.34.32,2.49l1.11,1.11,1.85-3.81,2,4.08s.34.77-.26,1.07l.6.87,1.1-1.09a1.13,1.13,0,0,1-.12-1.57l2.32-4.28,2.32,4.43a1,1,0,0,1-.13,1.34l.91,1.21s1.19,1.3,0,2.17l1.15,1.28s1.47,1.45,0,2.57l1.83,3.45a2.28,2.28,0,0,1,.38-2.13l.62-.66s-1.13-1.47.89-4a9.27,9.27,0,0,1,2-1.87,2.37,2.37,0,0,1,1.27-3.21,2,2,0,0,1,.36-2.19l3-4,3.17,4.21s.74.93.06,1.66c0,0,2.28,1.23,1.36,3.15,0,0,3.47,1.81,1.64,4.4l1.66,2.11,1.7-1.36s-1-2.15,1.79-3.28c0,0-.77-1.06.49-2.4l3.47-4.22,3.68,4.36s1.12,1.09.32,2c0,0,2.7,1.2,1.74,3.28,0,0,3.79,1.7,1.87,5,0,0,5,3.56,1.54,7.07a9.48,9.48,0,0,1-7.11,3.15s.78,1.19-.25,1.89l.8,1s1.44,1.57.29,2.91l1.31,2.58s1.56,3.58-2.36,4.34l-.87.13,0,.38h.48l2.3,2.56s.83.76.41,1.34c0,0,1.63,1.11,1.12,2.26,0,0,2,1.12,1.21,2.84l.77.9,2.49-3.74,3.19,5.11a3.6,3.6,0,0,1,2.2-3.77s-.35-2.52,1.82-3.35c0,0-.51-1,1-2.61l3.45-3.93,3.86,4.37s1.15,1.12.45,2c0,0,2.74,1.73,1.72,3.61l.45.26,1.66-2,3.89,4.47s1.18,1.11.54,2.14c0,0,2.62,1.34,1.76,3.47a4.46,4.46,0,0,1,2.3,2.24l2.23,4.56,1.12-.76a1.72,1.72,0,0,1,.38-2.17l2.65-3.93,1.37,1.88,4.25-5.07a5.39,5.39,0,0,1,1.72-1.66s-1-1,.67-2.65l2.55-3.41,3,4.14s1,.87.32,1.73c0,0,2.39,1.34,1.4,3.25,0,0,2.17,1.09,2,2.75v.41l3.29-4.56,3,4.18s1,1,.32,1.85c0,0,2.26,1.37,1.31,3.26,0,0,3.15,1.69,1.62,4.5l1.28,1.59s3.13,4.12-2,6.23-4.9,1-4.9,1V255Z"/></g></svg>