<?xml version="1.0" encoding="UTF-8"?>
<svg id="CLIP_PATH" data-name="CLIP PATH" xmlns="http://www.w3.org/2000/svg" viewBox="0 0 500 500">
  <defs>
    <style>
      .cls-1 {
        fill: none;
        stroke: #000;
        stroke-miterlimit: 10;
      }
    </style>
  </defs>
  <path class="cls-1" d="m224.32,147.34l-42.36-24.81-75,43.45v14.6l-1.36,2.38v14.57h1.07v26.51l-8.1,4.58-5.62,3.53-10.13,6.62-6.26,5.3-2,1.08-1.96.26-2.64,1.4-2.32,1.72h-.91l-.38.38.36.66-3.81,3.38-21.45,12.26v108.46l207,119.25,205.59-117.96v-124.96l-15-9.19-.37-.19-.23-10.3c10.04-.72,17.96-9.07,17.96-19.29s-8.67-19.36-19.36-19.36c-5.03,0-9.59,1.93-13.03,5.08-.07-8.74-5.93-16.08-13.93-18.41,1.63-3.26,2.56-6.93,2.56-10.82,0-13.34-10.81-24.15-24.15-24.15-5.01,0-9.66,1.52-13.52,4.13-3.47-5.6-9.66-9.35-16.74-9.35-1.62,0-3.18.22-4.68.58-3.61-4.26-9-6.97-15.02-6.97-10.88,0-19.7,8.82-19.7,19.7,0,3.72,1.05,7.18,2.84,10.14-6.32,2.02-11.21,7.2-12.84,13.68l-7.86-5.26c3.58-3.57,5.8-8.5,5.8-13.95,0-5.17-2.01-9.86-5.27-13.38-1.22-11.01-10.56-19.58-21.9-19.58-1.52,0-3,.15-4.43.45,3.36-3.53,5.43-8.3,5.43-13.55,0-10.88-8.82-19.7-19.7-19.7-9.67,0-17.7,6.98-19.37,16.17-1.08.16-2.14.39-3.16.72-3.38-2.74-7.69-4.38-12.38-4.38-10.88,0-19.7,8.82-19.7,19.7s7.94,18.8,18.05,19.63l-.02,5.17Z"/>
</svg>