<svg xmlns="http://www.w3.org/2000/svg" viewBox="0 0 500 500"><defs><style>.cls-1{fill:none;stroke:#000;stroke-miterlimit:10;}</style></defs><g id="GLOW-2" data-name="GLOW"><path class="cls-1" d="M435.68,253.29v-5.24a18.76,18.76,0,1,0-9.95-35.54A15.47,15.47,0,0,0,400,220.73h-.05a18.69,18.69,0,0,0-12.29,4.61l-4.76-2.77c-2.66-10.51-9.34-9.68-13.59-7.9l-38.7-22.51c1.09-3-2.75-5.15-2.75-5.15a3.8,3.8,0,0,0,0-3.06l-6.32-7.4a15.48,15.48,0,1,0-7.34-29.82,15.47,15.47,0,0,0-23.61-5.82l0,0a15.48,15.48,0,0,0-18.78-24.59,15.67,15.67,0,0,0-13.71-8.1l-.24,0a15.57,15.57,0,0,0-14.88,3.16,17.93,17.93,0,0,0-10,11.53,19.42,19.42,0,0,0,3.53,28.43l-22.93,13.25a15.56,15.56,0,0,0,1.37-3.67,15.49,15.49,0,1,0-17.74-18.81,15.47,15.47,0,0,0,2.12,30.71l-13.81,8a15.27,15.27,0,0,0,.94-5.25,15.49,15.49,0,0,0-30.35-4.4,15.47,15.47,0,0,0-3.28,23.08,14.23,14.23,0,0,0-3.16-.37,14,14,0,0,0-13.07,9,14,14,0,0,0-25.84-6.94,19.45,19.45,0,0,0-34.75,12c0,.2,0,.41,0,.61a15.65,15.65,0,0,0-10.48,10.09A19.45,19.45,0,1,0,51,252.13a16.56,16.56,0,0,0-.09,1.73,18,18,0,0,0,.56,4.37l-10,5.75V373.67l207,119.24L454.06,375V264Z"/></g></svg>