<svg id="CLIP_PATH" data-name="CLIP PATH" xmlns="http://www.w3.org/2000/svg" viewBox="0 0 500 500"><defs><style>.cls-1{fill:none;stroke:#000;stroke-miterlimit:10;}</style></defs><path class="cls-1" d="M286.07,167.68a4.86,4.86,0,1,0-4.71-2.7l-2.09-1.2a3.93,3.93,0,0,0,.12-.92,3.75,3.75,0,0,0-3.63-3.75,3.76,3.76,0,1,0-6.51-2.56,3.77,3.77,0,0,0,.44,1.74l-21.92-12.57-30.6,18-14.3-3.49v4.94l-12.85.76v6l-12.08.77v6l-12.09,1v6.13H163v9.1L137.85,209.3l-5.7-3.92v5.79l-5.62-4.08-9.27,1v6l-12.09,1.28v5.95l-12.08,1.45v6l-12.18,1.44v5.88l-12.17,1.53v11.74L41.47,265.21V373.67l207,119.24L454.06,375V264Z"/></svg>