<svg xmlns="http://www.w3.org/2000/svg" viewBox="0 0 500 500"><defs><style>.cls-1{fill:none;stroke:#000;stroke-miterlimit:10;}</style></defs><g id="CLIP_PATH-2" data-name="CLIP PATH"><path class="cls-1" d="M403.73,234.75l7.1-4.92-.54-.94-8,5-1.17-.68-.4-15.49s-.12-1.16-.83-1.11-.83,1.11-.83,1.11l-.5,14-2.47-1.43-5.77-13.55-1.11.47,4.4,11.64-42.49-24.68v-3.89l-10.85-6.64-2.07,1.3c-.26-4.19-2-7.43-4.12-7.43-1.61,0-3,1.88-3.69,4.62L297.4,173a8.25,8.25,0,0,0,2.49-5.78c.77-17.61-21.61-29.91-21.61-29.91a79.93,79.93,0,0,0-9.9-4.72l18.54-16.81c0-1.41-1.2-1.24-1.2-1.24l-20.48,16.89a77.83,77.83,0,0,0-8.68-2.44l-.41-15.58,7-4.18c.51-1.43-1-1.08-1-1.08l-6.05,3-.31-11.81s-.19-1.87-1.34-1.78-1.34,1.78-1.34,1.78l-1,28.82a82,82,0,0,0-10.61-1l-5.69-3.09c-1-.46-1.28.43-1.28.43-.26.77.25,1,.25,1l3,1.66A79.94,79.94,0,0,0,208,133.26V146.4l12.72,10.07-23.93,15.06-.55-20.8,8.25-5.35c.19-.76-.77-.51-.77-.51l-7.53,3.72-.32-12s-.19-1.87-1.34-1.78-1.34,1.78-1.34,1.78L192,169.67l-13.75-7.37s-1,.19-.51,1.53L191.86,173l-.06,1.66-47.91,30.15L41.47,264V373.67l207,119.24L454.06,375V264Z"/></g></svg>