<svg xmlns="http://www.w3.org/2000/svg" viewBox="0 0 500 500"><defs><style>.cls-1{fill:none;stroke:#000;stroke-miterlimit:10;}</style></defs><g id="CLIP_PATH-2" data-name="CLIP PATH"><path class="cls-1" d="M443.8,252.68a7.37,7.37,0,0,0-.78-13.79A10.08,10.08,0,0,0,429.79,237a2.38,2.38,0,0,0-.39-1.72l-3.31-3.64-3,3.45a1.68,1.68,0,0,0-.64,1.66c-1.59,1-1.91,2-1.84,2.77l-9.33-5.28c4.27-3.41,2.17-6.05,2.17-6.05l-1.6-1.66a3.89,3.89,0,0,0-.16-2.17,15.72,15.72,0,1,0-23.27-20.59l-2.61-3.34-1.59,2a12.41,12.41,0,0,0-3-.37,12.69,12.69,0,0,0-4.86,1,12.69,12.69,0,0,0-4.86-1,12.56,12.56,0,0,0-5.95,1.49,14.72,14.72,0,0,0,.08-1.49,15.69,15.69,0,0,0-19.17-15.34c0-.13,0-.26,0-.39a7.37,7.37,0,1,0-13.93,3.36l-10.55-6a13.55,13.55,0,1,0-11.28-24.3l-1.16-1L305.77,163a1.83,1.83,0,0,0-.6,2.21,2.91,2.91,0,0,0-2.13,3.7,3.65,3.65,0,0,0-1.92,3l-.39-.22a7.45,7.45,0,0,0,.39-2.37,7.37,7.37,0,0,0-7.37-7.37h-.06c.11-1.81-2.26-3.11-2.26-3.11a1.19,1.19,0,0,0-.22-1.67l-1-.88a1.55,1.55,0,0,0-.21-1.58l-3.32-3.57-3.61,4a1,1,0,0,0,0,1.28,2.49,2.49,0,0,0-1.45,2.51,3,3,0,0,0-1.71,1l-6.86-3.89a13.8,13.8,0,0,0,.47-3.49,13.56,13.56,0,0,0-.42-3.27,7.36,7.36,0,0,0-3.84-10.4,10.15,10.15,0,0,0-13.64-2.82l-.13-1.1-3.44-3.66L248.83,135a1.67,1.67,0,0,0-.36,1.4,2.32,2.32,0,0,0-1.38,2.81,2.68,2.68,0,0,0-2.09,3,6.29,6.29,0,0,0-1.33,1.8l-12,6.71a7.25,7.25,0,0,0,.19-1.62,7.47,7.47,0,0,0-.55-2.8,6.26,6.26,0,0,0,1.07.09,7.37,7.37,0,1,0-6.82-4.58,7.6,7.6,0,0,0-1.07-.09A7.37,7.37,0,0,0,222,156.08L191.75,173l0,4.24L41.47,264V373.67l207,119.24L454.06,375V258.49Z"/></g></svg>