<svg xmlns="http://www.w3.org/2000/svg" viewBox="0 0 500 500"><defs><style>.cls-1{fill:none;stroke:#000;stroke-miterlimit:10;}</style></defs><g id="CLIP_PATH-2" data-name="CLIP PATH"><path class="cls-1" d="M450.6,258.23c-2.05-3.89-4.86-2.93-4.86-2.93-2.23.38-4.72-2.24-4.72-2.24l-5.68-4.27-3.77-4.22-5.48-5.74a11.24,11.24,0,1,0-18.79-9.71l-2.47-2.35a2,2,0,0,0-2.49-.77l-1.72.83c-3.19,1.53-4.22-.7-4.22-.7L395.26,222c-.45-3.13-2.24-3.77-2.24-3.77l-1-.81a9.22,9.22,0,0,0-8.59-12.57,9.15,9.15,0,0,0-5.62,1.92l-2.24-1.3a5.44,5.44,0,0,0-.35-2.1A11.86,11.86,0,1,0,358.5,188.4a6.9,6.9,0,0,0-1.07-.93,3.18,3.18,0,0,0-.77-2.32l-5-5.26-4.81,5.28c-1.4,1-1.09,2.06-1.09,2.06l-14.19-13.36h0a12.07,12.07,0,1,0-22.22-7.08l-5.74-2.4a4.78,4.78,0,0,0-2.54-2.44,1.5,1.5,0,0,0,0-2.39l-5.1-5.23-4.39,5-2.21-1a15.41,15.41,0,0,0,2-2.4,9.64,9.64,0,0,0,3.23-14.21,13.39,13.39,0,0,0,1.87-6.83,13.52,13.52,0,0,0-27-.42,15.75,15.75,0,0,0-5.31,6.57,4.86,4.86,0,0,0-2.77-3.58,3.14,3.14,0,0,0-2.08-3.83,1.94,1.94,0,0,0-.56-2.43l-4.17-4.42-4.21,4.76a2,2,0,0,0-.81,2.17,2.83,2.83,0,0,0-1.74,3.66,3.89,3.89,0,0,0-2.09,5.11v.41a11.06,11.06,0,0,0-3.94,4.67l-8,3.54a13,13,0,0,0-.78-3.26,13.25,13.25,0,1,0-14.39-8.4,13.21,13.21,0,0,0-7.69,22.06,52.85,52.85,0,0,1-8.72,2.85,49.45,49.45,0,0,0-5.7,1.51v-4.53a12.46,12.46,0,1,0-2.62.06v5.39a104.9,104.9,0,0,0-23.34,13c-5.36,4.25-12.68,6-12.68,6-13.79,2.21-33.36,17-33.36,17l-1.22.71A12.08,12.08,0,1,0,107.15,213l-3.21,1.88a5.25,5.25,0,0,0-2.51-2.81c.72-1.11-.81-2.76-.81-2.76l-5.66-6-5.19,5.88c-2,1.53-1.11,3.06-1.11,3.06C85,214.4,86,216.87,86,216.87c-5.32,3.11-2.68,7.24-2.68,7.24C77.51,227.89,80,233,80,233l-5.11,3.66a8.33,8.33,0,0,0-2.46-2.43c.68-3.1-2.77-4.93-2.77-4.93,1.15-1.49-.72-3.15-.72-3.15l-6-6.55-5.78,6.25a3.33,3.33,0,0,0-1,3.58c-4.13,2.17-2.77,5-2.77,5-5.87,3.78-2.93,7.61-2.93,7.61l-2.13,2.26c-4.47,4.94-.3,9-.3,9l-6.55,3.91V373.67l207,119.24L454.06,375V268.83Z"/><path class="cls-1" d="M416.41,119.47c4.51-.63,7.88-3.15,7.88-6.17,0-3.49-4.51-6.32-10.07-6.32s-10.07,2.83-10.07,6.32a4.73,4.73,0,0,0,1.49,3.3h-4.28a4.73,4.73,0,0,0,1.49-3.3c0-3.49-4.51-6.32-10.07-6.32s-10.06,2.83-10.06,6.32c0,3,3.45,5.6,8,6.19-4.43.67-7.72,3.16-7.72,6.14,0,3.49,4.51,6.32,10.07,6.32s10.06-2.83,10.06-6.32a4.38,4.38,0,0,0-.75-2.4h2.5a4.4,4.4,0,0,0-.76,2.4c0,3.49,4.51,6.32,10.07,6.32s10.07-2.83,10.07-6.32C424.29,122.61,420.92,120.1,416.41,119.47Z"/></g></svg>