<svg width="33" height="32" viewBox="0 0 33 32" fill="none" xmlns="http://www.w3.org/2000/svg">
<path d="M16.491 21.3337C19.4945 21.3337 21.9293 18.9458 21.9293 16.0003C21.9293 13.0548 19.4945 10.667 16.491 10.667C13.4875 10.667 11.0527 13.0548 11.0527 16.0003C11.0527 18.9458 13.4875 21.3337 16.491 21.3337Z" stroke="black" style="stroke:black;stroke-opacity:1;" stroke-width="2" stroke-linecap="round" stroke-linejoin="round"/>
<path d="M4.25488 23V9C4.25488 6.23858 6.49346 4 9.25489 4H23.7273C26.4887 4 28.7273 6.23858 28.7273 9V23C28.7273 25.7614 26.4887 28 23.7273 28H9.25488C6.49346 28 4.25488 25.7614 4.25488 23Z" stroke="black" style="stroke:black;stroke-opacity:1;" stroke-width="2"/>
<path d="M23.9688 8.67949L23.9812 8.6656" stroke="black" style="stroke:black;stroke-opacity:1;" stroke-width="2" stroke-linecap="round" stroke-linejoin="round"/>
</svg>
