<?xml version="1.0" encoding="UTF-8"?><svg id="Layer_2" xmlns="http://www.w3.org/2000/svg" xmlns:xlink="http://www.w3.org/1999/xlink" viewBox="0 0 369.17 786.79"><defs><style>.cls-1{letter-spacing:-.03em;}.cls-2{stroke:#515151;stroke-width:1.49px;}.cls-2,.cls-3{fill:none;}.cls-4{letter-spacing:0em;}.cls-5{font-family:Fustat-SemiBold, Fustat;font-weight:600;}.cls-5,.cls-6,.cls-7{font-size:17.86px;}.cls-5,.cls-7{fill:#231f20;}.cls-8{letter-spacing:-.02em;}.cls-9{fill:#fff;}.cls-10{letter-spacing:-.02em;}.cls-11{letter-spacing:0em;}.cls-6{fill:#515151;font-family:Fustat-Regular, Fustat;}.cls-12{letter-spacing:-.03em;}.cls-13{clip-path:url(#clippath-1);}.cls-14{clip-path:url(#clippath-3);}.cls-15{letter-spacing:-.02em;}.cls-7{font-family:Fustat-Bold, Fustat;font-weight:700;}.cls-16{letter-spacing:0em;}.cls-17{letter-spacing:-.02em;}.cls-18{letter-spacing:0em;}.cls-19{clip-path:url(#clippath-2);}.cls-20{letter-spacing:-.03em;}.cls-21{clip-path:url(#clippath);}.cls-22{letter-spacing:0em;}</style><clipPath id="clippath"><rect class="cls-3" width="369.17" height="786.79"/></clipPath><clipPath id="clippath-1"><rect class="cls-3" width="369.17" height="786.79"/></clipPath><clipPath id="clippath-2"><rect class="cls-3" width="369.17" height="786.79"/></clipPath><clipPath id="clippath-3"><rect class="cls-3" width="369.17" height="786.79"/></clipPath></defs><g id="Layer_1-2"><line class="cls-2" x1="126.69" y1="175.99" x2="227.99" y2="175.99"/><line class="cls-2" x1="126.69" y1="531.4" x2="227.99" y2="531.4"/><line class="cls-2" x1="126.69" y1="413.6" x2="227.99" y2="413.6"/><g class="cls-21"><line class="cls-2" x1="227.25" y1="0" x2="227.25" y2="176.73"/></g><line class="cls-2" x1="227.25" y1="412.86" x2="227.25" y2="472.5"/><line class="cls-2" x1="227.25" y1="472.5" x2="227.25" y2="532.15"/><line class="cls-2" x1="176.97" y1="176.73" x2="176.97" y2="414.35"/><line class="cls-2" x1="176.97" y1="532.15" x2="176.97" y2="769.76"/><g class="cls-13"><line class="cls-2" x1="125.94" y1="0" x2="125.94" y2="176.73"/></g><line class="cls-2" x1="125.94" y1="412.86" x2="125.94" y2="472.5"/><line class="cls-2" x1="125.94" y1="472.5" x2="125.94" y2="532.15"/><g class="cls-19"><path class="cls-9" d="M177.71,186.33c5.3,0,9.59-4.3,9.59-9.59s-4.3-9.59-9.59-9.59-9.59,4.3-9.59,9.59,4.3,9.59,9.59,9.59"/><path class="cls-2" d="M177.71,186.33c5.3,0,9.59-4.3,9.59-9.59s-4.3-9.59-9.59-9.59-9.59,4.3-9.59,9.59,4.3,9.59,9.59,9.59Z"/><path class="cls-9" d="M176.97,541.74c5.3,0,9.59-4.3,9.59-9.59s-4.3-9.59-9.59-9.59-9.59,4.3-9.59,9.59,4.3,9.59,9.59,9.59"/><path class="cls-2" d="M176.97,541.74c5.3,0,9.59-4.3,9.59-9.59s-4.3-9.59-9.59-9.59-9.59,4.3-9.59,9.59,4.3,9.59,9.59,9.59Z"/><path class="cls-9" d="M176.97,779.35c5.3,0,9.59-4.3,9.59-9.59s-4.3-9.59-9.59-9.59-9.59,4.3-9.59,9.59,4.3,9.59,9.59,9.59"/><path class="cls-2" d="M176.97,779.35c5.3,0,9.59-4.3,9.59-9.59s-4.3-9.59-9.59-9.59-9.59,4.3-9.59,9.59,4.3,9.59,9.59,9.59Z"/><path class="cls-9" d="M227.25,73.52c5.3,0,9.59-4.3,9.59-9.59s-4.3-9.59-9.59-9.59-9.59,4.3-9.59,9.59,4.3,9.59,9.59,9.59"/><path class="cls-2" d="M227.25,73.52c5.3,0,9.59-4.3,9.59-9.59s-4.3-9.59-9.59-9.59-9.59,4.3-9.59,9.59,4.3,9.59,9.59,9.59Z"/><path class="cls-9" d="M227.25,424.85c5.3,0,9.59-4.3,9.59-9.59s-4.3-9.59-9.59-9.59-9.59,4.3-9.59,9.59,4.3,9.59,9.59,9.59"/><path class="cls-2" d="M227.25,424.85c5.3,0,9.59-4.3,9.59-9.59s-4.3-9.59-9.59-9.59-9.59,4.3-9.59,9.59,4.3,9.59,9.59,9.59Z"/><path class="cls-9" d="M126.69,73.52c5.3,0,9.59-4.3,9.59-9.59s-4.3-9.59-9.59-9.59-9.59,4.3-9.59,9.59,4.3,9.59,9.59,9.59"/><path class="cls-2" d="M126.69,73.52c5.3,0,9.59-4.3,9.59-9.59s-4.3-9.59-9.59-9.59-9.59,4.3-9.59,9.59,4.3,9.59,9.59,9.59Z"/><path class="cls-9" d="M126.69,424.85c5.3,0,9.59-4.3,9.59-9.59s-4.3-9.59-9.59-9.59-9.59,4.3-9.59,9.59,4.3,9.59,9.59,9.59"/><path class="cls-2" d="M126.69,424.85c5.3,0,9.59-4.3,9.59-9.59s-4.3-9.59-9.59-9.59-9.59,4.3-9.59,9.59,4.3,9.59,9.59,9.59Z"/></g><text class="cls-6" transform="translate(48.84 69.89)"><tspan class="cls-1" x="0" y="0">P</tspan><tspan x="9.91" y="0">oland</tspan></text><text class="cls-6" transform="translate(13.4 397.93)"><tspan x="0" y="0">N</tspan><tspan class="cls-8" x="12.4" y="0">e</tspan><tspan class="cls-4" x="21.99" y="0">therlands</tspan></text><text class="cls-5" transform="translate(13.4 419.36)"><tspan x="0" y="0">Ba</tspan><tspan class="cls-10" x="20.56" y="0">r</tspan><tspan class="cls-22" x="26.85" y="0">code</tspan></text><text class="cls-5" transform="translate(13.4 440.79)"><tspan x="0" y="0">A</tspan><tspan class="cls-10" x="11.4" y="0">r</tspan><tspan x="17.68" y="0">ch</tspan><tspan class="cls-20" x="38.37" y="0">i</tspan><tspan class="cls-8" x="41.9" y="0">t</tspan><tspan x="48.58" y="0">e</tspan><tspan class="cls-17" x="58.75" y="0">c</tspan><tspan x="68.52" y="0">ts</tspan></text><text class="cls-6" transform="translate(247.16 397.93)"><tspan x="0" y="0">N</tspan><tspan class="cls-15" x="12.4" y="0">e</tspan><tspan x="21.97" y="0">therlands</tspan></text><text class="cls-5" transform="translate(247.16 419.36)"><tspan x="0" y="0">Bold</tspan></text><text class="cls-6" transform="translate(247.16 58.49)"><tspan class="cls-16" x="0" y="0">U</tspan><tspan x="11.41" y="0">n</tspan><tspan class="cls-12" x="21.61" y="0">i</tspan><tspan class="cls-8" x="24.85" y="0">t</tspan><tspan class="cls-11" x="31.26" y="0">ed</tspan></text><text class="cls-6" transform="translate(247.16 79.93)"><tspan x="0" y="0">Ki</tspan><tspan class="cls-18" x="14.61" y="0">ng</tspan><tspan class="cls-11" x="33.78" y="0">dom</tspan></text><text class="cls-6" transform="translate(194.13 199.57)"><tspan x="0" y="0">Denmark</tspan></text><text class="cls-7" transform="translate(194.13 221)"><tspan x="0" y="0">BIG</tspan></text><text class="cls-6" transform="translate(194.13 554.99)"><tspan x="0" y="0">Spain</tspan></text><text class="cls-7" transform="translate(194.13 576.42)"><tspan x="0" y="0">BIG</tspan></text><g class="cls-14"><text class="cls-5" transform="translate(194.11 775.69)"><tspan x="0" y="0">ENTROPIC</tspan></text></g></g></svg>